<?xml version="1.0" encoding="UTF-8" standalone="no"?>
<!-- Created with Inkscape (http://www.inkscape.org/) -->

<svg
   xmlns:dc="http://purl.org/dc/elements/1.1/"
   xmlns:cc="http://creativecommons.org/ns#"
   xmlns:rdf="http://www.w3.org/1999/02/22-rdf-syntax-ns#"
   xmlns:svg="http://www.w3.org/2000/svg"
   xmlns="http://www.w3.org/2000/svg"
   xmlns:sodipodi="http://sodipodi.sourceforge.net/DTD/sodipodi-0.dtd"
   xmlns:inkscape="http://www.inkscape.org/namespaces/inkscape"
   width="1000"
   height="1122.5197"
   viewBox="0 0 264.58333 297"
   version="1.1"
   id="svg8"
   inkscape:version="0.92.1 r15371"
   sodipodi:docname="logo25.svg">
  <defs
     id="defs2" />
  <sodipodi:namedview
     id="base"
     pagecolor="#ffffff"
     bordercolor="#666666"
     borderopacity="1.0"
     inkscape:pageopacity="0.0"
     inkscape:pageshadow="2"
     inkscape:zoom="0.49497475"
     inkscape:cx="426.8779"
     inkscape:cy="881.54764"
     inkscape:document-units="mm"
     inkscape:current-layer="layer1"
     showgrid="false"
     units="px"
     inkscape:window-width="716"
     inkscape:window-height="710"
     inkscape:window-x="-3"
     inkscape:window-y="0"
     inkscape:window-maximized="0" />
  <metadata
     id="metadata5">
    <rdf:RDF>
      <cc:Work
         rdf:about="">
        <dc:format>image/svg+xml</dc:format>
        <dc:type
           rdf:resource="http://purl.org/dc/dcmitype/StillImage" />
        <dc:title></dc:title>
      </cc:Work>
    </rdf:RDF>
  </metadata>
  <g
     inkscape:label="Capa 1"
     inkscape:groupmode="layer"
     id="layer1"
     transform="translate(0,8.392334e-6)">
    <path
       style="fill:#ff6600;stroke-width:8.19965458"
       d="M 670.99219 130.73828 C 666.61291 130.94016 663.7813 139.64041 664.83594 155.10547 C 665.87618 170.3579 661.24933 177.35948 646.49609 182.85352 C 627.5189 189.9207 594.87853 186.6752 585.81836 176.82031 C 583.42422 174.21924 579.52441 173.93786 577.15234 176.19727 C 574.78031 178.45682 575.66758 182.52389 579.12305 185.23438 C 582.57863 187.94478 579.60626 194.28271 572.51953 199.31836 C 563.71146 205.57711 556.17438 203.97427 548.69727 194.25586 C 541.10718 184.39069 535.71614 183.33125 531.08398 190.79102 C 527.41232 196.70386 522.1445 198.60034 519.37891 195.00586 L 519.38086 195.00391 C 516.61527 191.40924 511.4535 190.52708 507.91016 193.04492 C 497.83696 200.2027 515.91672 218.6308 529.80078 215.35742 C 540.69727 212.78821 542.00216 214.54278 540.3457 229.53711 C 540.23354 230.55216 540.03139 231.61713 539.77344 232.70703 C 524.21122 237.43834 494.74948 262.94599 474.82812 260.82031 C 441.30701 257.24339 446.35534 233.10093 437.08008 231.13672 C 396.8647 222.62031 430.91717 284.0448 398.14844 287.13867 C 356.95658 324.10566 342.74175 327.88557 354.33984 298.78906 C 360.66581 282.91925 358.01827 279.69003 342.94727 284.89062 C 332.1494 288.61667 323.16533 300.39179 322.98438 311.05664 C 322.52299 338.23381 280.34825 337.25308 256.61133 309.51367 C 241.60015 291.97112 237.21817 290.75915 236.48242 303.94141 C 235.96536 313.20926 244.27208 323.27802 254.94141 326.31641 C 265.6109 329.3548 270.59478 336.82242 266.01758 342.91211 C 260.38024 350.41173 251.33654 349.89665 237.98438 341.31641 C 221.02794 330.42012 219.42671 331.23354 226.52539 347.13477 C 235.2075 366.58295 206.59716 410.58883 192.57031 399.36133 C 188.10291 395.78548 184.31762 400.54205 184.1582 409.93164 C 183.99879 419.32135 190.16784 426.80193 197.86914 426.55664 C 201.7767 426.43228 204.15508 427.02799 205.00977 428.38867 L 217.11719 422.95117 L 265.81836 459.29883 L 243.18164 411.24414 L 250.66797 407.88086 L 278.38867 466.72461 L 268.47266 471.17969 L 215.10352 431.37305 L 239.90039 484.01367 L 232.41211 487.375 L 205.35742 429.94141 C 205.21643 432.04441 203.12841 435.14494 199.08984 439.31641 C 182.2081 456.7542 199.46004 493.78584 231.76758 509.46094 C 245.68325 516.2125 256.95753 528.25597 256.82227 536.22461 C 256.63318 547.3631 262.41669 546.24288 281.83984 531.37891 C 295.73532 520.74551 307.05653 514.95139 306.99609 518.50195 C 306.93585 522.05259 320.7953 520.19808 337.79492 514.38086 C 357.81686 507.52888 371.3841 507.36095 376.31641 513.9043 C 381.30699 520.52527 390.01805 519.71401 401.59766 511.54883 C 411.31429 504.69745 416.56276 495.50832 413.26172 491.12891 C 403.41182 478.0613 421.92863 449.71715 435.92773 456.43359 C 443.04893 459.85021 456.20986 454.337 465.17188 444.18164 C 481.3826 425.81238 514.91036 429.70618 500.91016 448.33203 C 496.8737 453.70202 500.11691 457.88755 508.11719 457.63281 C 516.19158 457.37577 519.4499 450.14144 515.44141 441.37305 C 509.78372 428.9977 514.25883 426.75301 536.10352 431.00781 C 562.43197 436.13595 562.72598 435.63959 541.40234 422.09766 C 519.58498 408.24217 519.66668 407.09443 543.79492 388.21875 C 547.82795 369.67339 556.05715 361.22843 563.35938 355.92188 C 567.81529 362.8378 575.40246 363.66616 581.82617 354.66406 C 588.14101 345.81426 596.43569 344.27705 607.68164 349.87109 C 616.78845 354.40101 623.92001 360.98819 623.53125 364.50977 C 623.14207 368.03145 634.18203 373.43134 648.0625 376.50977 C 661.94308 379.58818 672.05256 379.75853 670.5293 376.88867 C 669.00626 374.01873 665.39753 367.87048 662.50781 363.22461 C 654.89649 350.98635 681.2823 331.7403 705.19141 332.0918 C 720.05614 332.31029 725.62964 336.0195 725.48828 345.59766 C 725.27134 360.30641 736.10213 364.85498 749.19336 355.55273 C 754.06079 352.09394 752.15901 342.13884 744.80469 332.58008 C 737.66663 323.30251 728.92612 317.77122 725.38281 320.28906 C 721.83951 322.80679 715.43711 320.3127 711.1543 314.74609 C 700.44965 300.8329 706.43526 298.32962 745.31836 300.45508 C 776.41038 302.15466 786.58601 296.22599 776.05859 282.54297 C 773.67923 279.45041 767.4733 279.94488 762.26953 283.64258 C 756.52393 287.7253 751.21416 285.37698 748.74609 277.6582 C 746.51149 270.66933 748.57057 264.78701 753.32227 264.58594 C 758.07404 264.38513 758.88163 260.21704 755.11719 255.32422 C 751.3527 250.43128 738.91581 246.78132 727.48047 247.21094 C 711.29755 247.8194 707.65021 245.39373 711.02344 236.26953 C 714.50185 226.86059 711.12976 222.12228 693.93945 212.26172 C 676.54516 202.28422 672.86107 196.92114 674.32031 183.71094 C 675.30858 174.76502 678.88437 165.47819 682.26758 163.07422 C 685.65075 160.67025 685.26348 151.55333 681.40625 142.81445 C 677.70977 134.43962 673.98853 130.60015 670.99219 130.73828 z M 689.73438 228.30078 C 691.93423 228.18252 694.01274 228.55384 695.9707 229.41406 C 699.88663 231.1345 703.11792 234.69476 705.66211 240.0957 L 719.1582 268.74805 L 711.54883 272.16602 L 699.70898 247.03125 C 698.75336 245.0026 697.7384 243.16002 696.66406 241.50391 C 695.57731 239.82144 694.47461 238.62436 693.35547 237.91406 C 692.1597 237.1105 690.80342 236.73078 689.28711 236.77344 C 687.75839 236.78975 685.98254 237.25125 683.95898 238.16016 C 681.88147 239.0933 679.94517 240.57072 678.15039 242.58984 C 676.35562 244.60897 674.78669 246.86205 673.44141 249.34961 L 688.9668 282.30859 L 681.35742 285.72656 L 660.56445 241.58398 L 668.17188 238.16602 L 670.48047 243.06641 C 671.94879 240.07669 673.69726 237.4713 675.72461 235.25195 C 677.75196 233.0326 680.10039 231.3228 682.77148 230.12305 C 685.21324 229.0263 687.53452 228.41904 689.73438 228.30078 z M 637.74609 252.75586 C 640.37488 252.82412 642.94701 253.40371 645.46289 254.49414 C 651.20107 256.9602 655.76423 261.78994 659.15234 268.98242 C 662.54045 276.1749 663.32618 282.70124 661.50977 288.56055 C 659.69335 294.41985 655.61586 298.77319 649.27539 301.62109 C 642.88096 304.49324 636.81436 304.69653 631.07617 302.23047 C 625.36497 299.75229 620.81584 294.91709 617.42773 287.72461 C 614.03962 280.53213 613.23986 274.01125 615.0293 268.16406 C 616.8333 262.27841 620.93174 257.89949 627.32617 255.02734 C 630.89268 253.4254 634.36622 252.6681 637.74609 252.75586 z M 636.2793 260.03125 C 634.35855 260.04808 632.37884 260.51472 630.3418 261.42969 C 626.21375 263.28385 623.66142 266.12253 622.68359 269.94531 C 621.72033 273.72963 622.58618 278.48017 625.2793 284.19727 C 627.88554 289.72994 631.01013 293.41814 634.65625 295.25977 C 638.28996 297.07505 642.1587 297.0608 646.25977 295.21875 C 650.30687 293.40094 652.81192 290.56787 653.77734 286.71875 C 654.75733 282.83116 653.93184 278.09513 651.30078 272.50977 C 648.60767 266.79267 645.46367 263.06437 641.86719 261.32812 C 640.06274 260.44683 638.20004 260.01442 636.2793 260.03125 z M 588.78125 274.3418 C 591.16158 274.30956 593.42913 274.73082 595.58594 275.60547 C 600.54277 277.59255 604.52913 281.78736 607.54492 288.18945 L 609.44336 292.21875 L 576.13672 307.17969 C 577.41502 309.89333 578.95016 312.0775 580.74219 313.73047 C 582.5218 315.35709 584.44273 316.48845 586.50781 317.125 C 588.50652 317.75944 590.61269 317.9625 592.82617 317.73438 C 595.06664 317.49413 597.34763 316.85276 599.66797 315.81055 C 602.74377 314.42901 605.55335 312.44837 608.09766 309.86914 C 610.65653 307.25145 612.32558 305.06555 613.10156 303.3125 L 613.50586 303.13086 L 617.32227 311.23242 C 615.25552 313.43755 613.0528 315.49515 610.7168 317.40625 C 608.38079 319.31735 605.74363 320.93492 602.80273 322.25586 C 595.3021 325.62487 588.5159 326.27819 582.44531 324.2168 C 576.36231 322.12906 571.60182 317.43654 568.16406 310.13867 C 564.76354 302.91985 564.07369 296.28569 566.0957 290.23828 C 568.14469 284.17875 572.46163 279.67182 579.04492 276.71484 C 582.47484 275.17425 585.72082 274.38325 588.78125 274.3418 z M 537.69727 275.75 L 566.66406 337.24219 L 559.05469 340.66016 L 556.87695 336.03711 C 555.56026 338.86295 553.95669 341.32207 552.06641 343.41602 C 550.17612 345.50996 547.84151 347.18146 545.0625 348.42969 C 539.66636 350.85344 534.42114 350.75228 529.32617 348.125 C 524.25819 345.4856 520.02874 340.56943 516.64062 333.37695 C 514.87831 329.63581 513.84914 326.05956 513.55078 322.65039 C 513.27941 319.22911 513.59074 316.07283 514.48438 313.18164 C 515.37585 310.35526 516.78691 307.87109 518.71875 305.72656 C 520.67757 303.56991 522.9649 301.90208 525.58203 300.72656 C 527.95633 299.66011 530.17951 298.96608 532.25 298.64258 C 534.30808 298.29273 536.59009 298.17633 539.09766 298.29492 L 530.08789 279.16797 L 537.69727 275.75 z M 588.48633 281.41016 C 586.37573 281.34817 584.05483 281.88535 581.52539 283.02148 C 577.4513 284.85141 574.7534 287.48443 573.42969 290.91992 C 572.13295 294.34329 572.14064 297.86713 573.45508 301.49023 L 599.35742 289.85547 C 597.49366 285.96837 595.06043 283.40521 592.05859 282.16797 C 590.94302 281.69946 589.75268 281.44735 588.48633 281.41016 z M 542.00195 304.46094 C 539.52946 304.4862 537.40323 304.69155 535.62305 305.07617 C 533.84287 305.4608 531.99571 306.08293 530.08008 306.94336 C 525.81713 308.85812 523.181 311.7972 522.17188 315.76172 C 521.16275 319.72624 521.91102 324.3695 524.41797 329.69141 C 526.88769 334.93428 529.68515 338.51377 532.81055 340.42969 C 535.92353 342.31926 539.50367 342.35492 543.55078 340.53711 C 545.70924 339.56761 547.67703 338.12483 549.45508 336.20898 C 551.22071 334.26679 552.71491 332.12878 553.93555 329.79297 L 542.00195 304.46094 z M 486.38477 320.74219 C 489.01356 320.81045 491.58568 321.39004 494.10156 322.48047 C 499.83975 324.94653 504.40291 329.77627 507.79102 336.96875 C 511.17913 344.16123 511.96485 350.68757 510.14844 356.54688 C 508.33202 362.40618 504.25453 366.75952 497.91406 369.60742 C 491.51963 372.47956 485.45303 372.68285 479.71484 370.2168 C 474.00364 367.73862 469.45256 362.90342 466.06445 355.71094 C 462.67634 348.51846 461.87853 341.99758 463.66797 336.15039 C 465.47197 330.26474 469.57042 325.88581 475.96484 323.01367 C 479.53136 321.41173 483.00489 320.65443 486.38477 320.74219 z M 435.87109 321.48633 L 464.83789 382.97852 L 457.22852 386.39648 L 428.26367 324.9043 L 435.87109 321.48633 z M 484.91797 328.01758 C 482.99722 328.03441 481.01751 328.50105 478.98047 329.41602 C 474.85242 331.27018 472.3001 334.10886 471.32227 337.93164 C 470.35901 341.71595 471.2229 346.46649 473.91602 352.18359 C 476.52225 357.71627 479.6488 361.40251 483.29492 363.24414 C 486.92863 365.05942 490.79737 365.04713 494.89844 363.20508 C 498.94554 361.38727 501.4506 358.5542 502.41602 354.70508 C 503.39601 350.81749 502.57051 346.07951 499.93945 340.49414 C 497.24634 334.77704 494.10234 331.0507 490.50586 329.31445 C 488.70141 328.43316 486.83871 328.00074 484.91797 328.01758 z M 414.91602 352.43359 C 417.29635 352.40135 419.56585 352.82262 421.72266 353.69727 C 426.67949 355.68434 430.66585 359.87915 433.68164 366.28125 L 435.58008 370.3125 L 402.27148 385.27344 C 403.54978 387.98708 405.08493 390.1693 406.87695 391.82227 C 408.65657 393.44889 410.57945 394.5822 412.64453 395.21875 C 414.64324 395.85319 416.7494 396.05625 418.96289 395.82812 C 421.20336 395.58788 423.48435 394.94651 425.80469 393.9043 C 428.88049 392.52276 431.69007 390.54212 434.23438 387.96289 C 436.79325 385.3452 438.46034 383.1593 439.23633 381.40625 L 439.64258 381.22461 L 443.45703 389.32617 C 441.39029 391.5313 439.18952 393.5889 436.85352 395.5 C 434.51751 397.4111 431.8784 399.02671 428.9375 400.34766 C 421.43686 403.71667 414.65262 404.37194 408.58203 402.31055 C 402.49903 400.22281 397.73853 395.53029 394.30078 388.23242 C 390.90026 381.0136 390.21041 374.37944 392.23242 368.33203 C 394.28141 362.2725 398.59835 357.76361 405.18164 354.80664 C 408.61156 353.26605 411.85559 352.47505 414.91602 352.43359 z M 414.62109 359.50391 C 412.5105 359.44192 410.19155 359.9791 407.66211 361.11523 C 403.58802 362.94516 400.88817 365.57818 399.56445 369.01367 C 398.26772 372.43704 398.27736 375.95892 399.5918 379.58203 L 425.49414 367.94922 C 423.63038 364.06212 421.19715 361.49896 418.19531 360.26172 C 417.07974 359.79321 415.88745 359.5411 414.62109 359.50391 z M 338.49805 365.22266 L 357.07617 404.66406 L 368.64648 372.70117 L 378.23828 368.39453 L 366.83984 398.2207 L 400.57031 411.8457 L 390.5332 416.35352 L 363.29883 405.17188 L 360.52148 411.97461 L 367.46484 426.71484 L 359.85547 430.13281 L 330.88867 368.64062 L 338.49805 365.22266 z M 328.24414 393.16016 C 328.9022 393.15187 329.55102 393.15805 330.19141 393.18164 L 334.08203 401.44141 L 333.67773 401.62305 C 330.52588 400.90007 327.48565 400.6226 324.55664 400.78906 C 321.65461 400.94341 319.02896 401.54723 316.68164 402.60156 C 312.36473 404.54056 309.62198 407.49633 308.45312 411.46875 C 307.29884 415.4027 308.01233 420.10986 310.59375 425.58984 C 313.1007 430.91175 316.24436 434.4631 320.02539 436.24414 C 323.82099 437.98671 327.93259 437.86443 332.35742 435.87695 C 333.89532 435.18618 335.36578 434.28598 336.77148 433.17578 C 338.17719 432.06558 339.3657 430.90892 340.33594 429.70703 C 341.18152 428.6569 341.94695 427.61059 342.63281 426.56836 C 343.30626 425.49978 343.82212 424.61449 344.17773 423.91211 L 344.58203 423.73047 L 348.43555 431.91016 C 346.45784 434.23489 344.47723 436.2429 342.49414 437.93164 C 340.53803 439.60827 338.27801 441.02255 335.71484 442.17383 C 332.45018 443.6402 329.23755 444.52429 326.07812 444.82617 C 322.90629 445.10171 319.90258 444.72749 317.06641 443.70312 C 314.20325 442.69088 311.54987 440.97777 309.10547 438.56445 C 306.66107 436.15113 304.52749 433.00764 302.70312 429.13477 C 299.3026 421.91594 298.65653 415.34186 300.76758 409.41406 C 302.9056 403.47414 307.30647 399.00895 313.9707 396.01562 C 316.56085 394.85223 319.26472 394.06764 322.08203 393.66406 C 324.21525 393.35229 326.26997 393.18503 328.24414 393.16016 z M 274.07617 396.88867 L 277.70703 404.59375 L 269.12695 408.44922 L 265.49805 400.74219 L 274.07617 396.88867 z M 280.70312 412.20312 L 301.49609 456.3457 L 293.88867 459.76367 L 273.09375 415.62109 L 280.70312 412.20312 z "
       transform="matrix(0.26458333,0,0,0.26458333,0,-8.392334e-6)"
       id="path4587" />
    <text
       xml:space="preserve"
       style="font-style:normal;font-variant:normal;font-weight:normal;font-stretch:normal;font-size:10.58333302px;line-height:1.25;font-family:'Nirmala UI';-inkscape-font-specification:'Nirmala UI';letter-spacing:0px;word-spacing:0px;fill:#000000;fill-opacity:1;stroke:none;stroke-width:0.26458332;"
       x="72.697311"
       y="8.3488932"
       id="text4607"><tspan
         sodipodi:role="line"
         id="tspan4605"
         x="72.697311"
         y="18.004389"
         style="stroke-width:0.26458332;-inkscape-font-specification:'Nirmala UI';font-family:'Nirmala UI';font-weight:normal;font-style:normal;font-stretch:normal;font-variant:normal;" /></text>
  </g>
</svg>
