<?xml version="1.0" encoding="UTF-8" standalone="no"?>
<!-- Created with Inkscape (http://www.inkscape.org/) -->

<svg
   xmlns:dc="http://purl.org/dc/elements/1.1/"
   xmlns:cc="http://creativecommons.org/ns#"
   xmlns:rdf="http://www.w3.org/1999/02/22-rdf-syntax-ns#"
   xmlns:svg="http://www.w3.org/2000/svg"
   xmlns="http://www.w3.org/2000/svg"
   xmlns:xlink="http://www.w3.org/1999/xlink"
   xmlns:sodipodi="http://sodipodi.sourceforge.net/DTD/sodipodi-0.dtd"
   xmlns:inkscape="http://www.inkscape.org/namespaces/inkscape"
   width="1400"
   height="1000"
   viewBox="0 0 370.41666 264.58334"
   version="1.1"
   id="svg8"
   sodipodi:docname="logoChevrolet.svg"
   inkscape:version="0.92.2 (5c3e80d, 2017-08-06)">
  <defs
     id="defs2">
    <linearGradient
       inkscape:collect="always"
       id="linearGradient1124">
      <stop
         style="stop-color:#728b9a;stop-opacity:0.70588237"
         offset="0"
         id="stop1120" />
      <stop
         id="stop1128"
         offset="0.16979852"
         style="stop-color:#8f9da5;stop-opacity:0.16862746" />
      <stop
         style="stop-color:#728b9a;stop-opacity:0.70588237"
         offset="0.34204078"
         id="stop1132" />
      <stop
         id="stop1136"
         offset="0.52867234"
         style="stop-color:#8f9da5;stop-opacity:0.16862746" />
      <stop
         id="stop1134"
         offset="0.68974483"
         style="stop-color:#728b9a;stop-opacity:0.70588237" />
      <stop
         style="stop-color:#8f9da5;stop-opacity:0.16862745;"
         offset="0.88938123"
         id="stop1130" />
      <stop
         style="stop-color:#728b9a;stop-opacity:0.70588237"
         offset="1"
         id="stop1122" />
    </linearGradient>
    <linearGradient
       inkscape:collect="always"
       id="linearGradient1082">
      <stop
         style="stop-color:#ffba00;stop-opacity:0.98623854"
         offset="0"
         id="stop1078" />
      <stop
         id="stop1086"
         offset="0.29079762"
         style="stop-color:#ecb10f;stop-opacity:0.63761467" />
      <stop
         style="stop-color:#ecb10f;stop-opacity:0.24311927"
         offset="0.49367851"
         id="stop1094" />
      <stop
         style="stop-color:#ecb10f;stop-opacity:0.63921571"
         offset="0.67107654"
         id="stop1088" />
      <stop
         style="stop-color:#ffc706;stop-opacity:1"
         offset="1"
         id="stop1080" />
    </linearGradient>
    <path
       id="SVGID_1_"
       d="m 126.888,12.889 c 0,0 -42.335,-0.513 -62.128,0 0,0 -2.21,-0.368 -2.263,2.209 0,0 0.105,7.917 -0.105,8.496 -0.21,0.579 0.053,2.301 -2.735,2.459 0,0 -29.262,0.592 -32.787,0.644 0,0 -2,0.197 -2.367,0.566 -0.369,0.368 -0.869,1.157 -1.184,1.841 0,0 -12.244,24.581 -16.189,32.419 0,0 -1.315,2.762 -1.394,3.209 -0.071,0.396 -0.583,2.061 1.091,2.302 2.696,0.388 8.838,0.263 10.14,0.303 1.302,0.039 34.892,0.342 42.046,0.395 0,0 2.104,-0.065 2.499,0.604 0,0 0.709,0.395 0.75,2.249 0,0 0.039,7.142 0.118,7.615 0.079,0.474 -0.04,1.381 0.592,1.973 0,0 0.079,0.552 1.499,0.631 0,0 18.426,0.158 26.198,0.118 7.773,-0.039 30.705,0.016 33.583,0.016 2.881,0 3.473,0.056 4.301,-0.181 0,0 1.184,-0.205 1.303,-1.586 0,0 0.158,-7 0.223,-9.459 0,0 0.531,-1.968 2.229,-1.968 0,0 24.238,-0.053 28.672,-0.039 2.012,0.006 4.418,-0.105 5.404,-0.224 0.684,-0.082 0.977,-0.435 1.525,-1.395 0,0 8.535,-17.241 10.902,-21.818 2.367,-4.577 6.943,-13.849 7.418,-15.466 0,0 0.553,-1.105 -0.197,-1.815 -0.75,-0.71 -1.42,-0.552 -2.012,-0.592 0,0 -39.494,-0.276 -43.125,-0.276 -3.629,0 -7.063,0.079 -7.891,-0.04 -0.828,-0.118 -2.248,-0.71 -2.289,-1.894 0,0 -0.117,-7.378 -0.078,-8.443 0.039,-1.065 -0.395,-2.683 -1.539,-2.722 z"
       inkscape:connector-curvature="0" />
    <defs
       id="defs25">
      <path
         id="path863"
         d="m 126.888,12.889 c 0,0 -42.335,-0.513 -62.128,0 0,0 -2.21,-0.368 -2.263,2.209 0,0 0.105,7.917 -0.105,8.496 -0.21,0.579 0.053,2.301 -2.735,2.459 0,0 -29.262,0.592 -32.787,0.644 0,0 -2,0.197 -2.367,0.566 -0.369,0.368 -0.869,1.157 -1.184,1.841 0,0 -12.244,24.581 -16.189,32.419 0,0 -1.315,2.762 -1.394,3.209 -0.071,0.396 -0.583,2.061 1.091,2.302 2.696,0.388 8.838,0.263 10.14,0.303 1.302,0.039 34.892,0.342 42.046,0.395 0,0 2.104,-0.065 2.499,0.604 0,0 0.709,0.395 0.75,2.249 0,0 0.039,7.142 0.118,7.615 0.079,0.474 -0.04,1.381 0.592,1.973 0,0 0.079,0.552 1.499,0.631 0,0 18.426,0.158 26.198,0.118 7.773,-0.039 30.705,0.016 33.583,0.016 2.881,0 3.473,0.056 4.301,-0.181 0,0 1.184,-0.205 1.303,-1.586 0,0 0.158,-7 0.223,-9.459 0,0 0.531,-1.968 2.229,-1.968 0,0 24.238,-0.053 28.672,-0.039 2.012,0.006 4.418,-0.105 5.404,-0.224 0.684,-0.082 0.977,-0.435 1.525,-1.395 0,0 8.535,-17.241 10.902,-21.818 2.367,-4.577 6.943,-13.849 7.418,-15.466 0,0 0.553,-1.105 -0.197,-1.815 -0.75,-0.71 -1.42,-0.552 -2.012,-0.592 0,0 -39.494,-0.276 -43.125,-0.276 -3.629,0 -7.063,0.079 -7.891,-0.04 -0.828,-0.118 -2.248,-0.71 -2.289,-1.894 0,0 -0.117,-7.378 -0.078,-8.443 0.039,-1.065 -0.395,-2.683 -1.539,-2.722 z"
         inkscape:connector-curvature="0" />
    </defs>
    <clipPath
       id="SVGID_2_">
      <use
         xlink:href="#SVGID_1_"
         overflow="visible"
         id="use27"
         style="overflow:visible"
         x="0"
         y="0"
         width="100%"
         height="100%" />
    </clipPath>
    <linearGradient
       inkscape:collect="always"
       xlink:href="#linearGradient1082"
       id="linearGradient1084"
       x1="69.745407"
       y1="98.423897"
       x2="323.16475"
       y2="104.47152"
       gradientUnits="userSpaceOnUse"
       spreadMethod="reflect"
       gradientTransform="translate(11.312421,40.699598)" />
    <linearGradient
       inkscape:collect="always"
       xlink:href="#linearGradient1124"
       id="linearGradient1126"
       x1="33.493298"
       y1="136.28447"
       x2="308.31088"
       y2="136.6041"
       gradientUnits="userSpaceOnUse"
       spreadMethod="reflect"
       gradientTransform="translate(23.812501,51.404764)" />
    <linearGradient
       inkscape:collect="always"
       xlink:href="#linearGradient1082"
       id="linearGradient1140"
       gradientUnits="userSpaceOnUse"
       gradientTransform="translate(-1.916746,42.967455)"
       x1="69.745407"
       y1="98.423897"
       x2="323.16475"
       y2="104.47152"
       spreadMethod="reflect" />
    <linearGradient
       inkscape:collect="always"
       xlink:href="#linearGradient1124"
       id="linearGradient1142"
       gradientUnits="userSpaceOnUse"
       gradientTransform="translate(10.583334,53.672621)"
       x1="33.493298"
       y1="136.28447"
       x2="308.31088"
       y2="136.6041"
       spreadMethod="reflect" />
  </defs>
  <sodipodi:namedview
     id="base"
     pagecolor="#ffffff"
     bordercolor="#666666"
     borderopacity="1.0"
     inkscape:pageopacity="0.0"
     inkscape:pageshadow="2"
     inkscape:zoom="1.4"
     inkscape:cx="1007.8028"
     inkscape:cy="379.31957"
     inkscape:document-units="mm"
     inkscape:current-layer="layer1"
     showgrid="false"
     inkscape:window-width="1920"
     inkscape:window-height="1001"
     inkscape:window-x="-9"
     inkscape:window-y="-9"
     inkscape:window-maximized="1"
     units="px"
     objecttolerance="1"
     guidetolerance="50"
     showguides="true"
     inkscape:guide-bbox="true">
    <sodipodi:guide
       position="136.07143,140.60715"
       orientation="0,1"
       id="guide1144"
       inkscape:locked="false" />
    <sodipodi:guide
       position="182.94047,140.60715"
       orientation="1,0"
       id="guide1146"
       inkscape:locked="false" />
  </sodipodi:namedview>
  <metadata
     id="metadata5">
    <rdf:RDF>
      <cc:Work
         rdf:about="">
        <dc:format>image/svg+xml</dc:format>
        <dc:type
           rdf:resource="http://purl.org/dc/dcmitype/StillImage" />
        <dc:title></dc:title>
      </cc:Work>
    </rdf:RDF>
  </metadata>
  <g
     inkscape:label="Capa 1"
     inkscape:groupmode="layer"
     id="layer1"
     transform="translate(0,-32.41665)">
    <path
       style="opacity:1;fill:url(#linearGradient1140);fill-opacity:1;fill-rule:nonzero;stroke:url(#linearGradient1142);stroke-width:7.28530216;stroke-linecap:round;stroke-linejoin:round;stroke-miterlimit:0.80000001;stroke-dasharray:none;stroke-opacity:1"
       d="m 135.08429,106.01202 -1.80688,21.02951 -61.366836,2.17186 -28.760829,59.73489 90.321385,0.28662 2.42458,20.90523 102.48725,0.13614 0.88236,-20.7741 60.76232,0.49585 30.07799,-61.98912 -89.60753,-0.47627 -0.4022,-20.96673 z"
       id="path971"
       inkscape:connector-curvature="0"
       sodipodi:nodetypes="ccccccccccccc" />
    <path
       inkscape:connector-curvature="0"
       id="path4"
       d="m 40.931477,239.92874 c 0,-7.29972 -1.630155,-10.45943 -6.677083,-10.45943 -5.669153,0 -6.988195,5.12362 -6.988195,19.30528 0,15.16197 2.328792,17.90224 7.142841,17.90224 4.038998,0 6.988195,-1.89648 6.988195,-12.70789 h 11.181839 c 0,10.80977 -2.952835,20.14907 -17.627862,20.14907 -16.77094,0 -18.868672,-10.81306 -18.868672,-26.04576 0,-15.2327 2.095913,-26.04576 18.868672,-26.04576 15.995889,0 17.160285,10.60253 17.160285,17.90225 z"
       style="stroke-width:1.72989523" />
    <path
       inkscape:connector-curvature="0"
       id="path6"
       d="m 55.837563,223.01174 h 11.18184 v 19.16382 H 80.064276 V 223.01174 H 91.246115 V 273.1344 H 80.064276 V 250.88325 H 67.019403 v 22.25115 h -11.18184 z"
       style="stroke-width:1.72989523" />
    <path
       inkscape:connector-curvature="0"
       id="path8"
       d="m 126.6492,223.01174 v 8.28497 h -19.80018 v 11.78844 h 18.63579 v 8.28826 h -18.63579 v 13.47767 h 20.57887 v 8.28168 H 95.667184 v -50.12102 z"
       style="stroke-width:1.72989523" />
    <path
       inkscape:connector-curvature="0"
       id="path10"
       d="m 140.54736,223.01174 7.8433,37.06277 h 0.23288 l 8.23082,-37.06277 h 11.56937 l -12.73558,50.12266 h -14.36392 l -12.73558,-50.12266 z"
       style="stroke-width:1.72989523" />
    <path
       inkscape:connector-curvature="0"
       id="path12"
       d="m 171.76227,223.01174 h 20.65347 c 9.16234,0 14.75508,4.3522 14.75508,12.91843 0,6.66811 -2.95102,11.15848 -9.23875,12.35591 v 0.13816 c 7.6086,0.91617 8.77117,4.7009 8.92764,15.30342 0.0764,5.26508 0.38934,8.00371 2.48162,8.98731 v 0.42108 h -12.11154 c -1.08616,-1.40468 -1.32086,-3.29952 -1.39727,-5.26508 l -0.31112,-9.61892 c -0.15646,-3.93112 -2.09773,-6.31611 -6.60067,-6.31611 h -5.98026 v 21.20011 h -11.1782 z m 11.18002,21.90245 h 4.65758 c 5.36168,0 8.38547,-2.10702 8.38547,-7.5119 0,-4.63347 -2.7145,-6.95102 -7.76506,-6.95102 h -5.27981 v 14.46292 z"
       style="stroke-width:1.72989523" />
    <path
       inkscape:connector-curvature="0"
       id="path14"
       d="m 228.48108,222.02649 c 16.77276,0 18.8705,10.81306 18.8705,26.04576 0,15.2327 -2.09774,26.04576 -18.8705,26.04576 -16.77275,0 -18.86867,-10.81306 -18.86867,-26.04576 0,-15.2327 2.09592,-26.04576 18.86867,-26.04576 z m 0,44.65034 c 6.60067,0 7.68684,-5.12362 7.68684,-18.60458 0,-13.40859 -1.08617,-18.60458 -7.68684,-18.60458 -6.60066,0 -7.69047,5.19435 -7.69047,18.60458 0,13.48096 1.08981,18.60458 7.69047,18.60458 z"
       style="stroke-width:1.72989523" />
    <path
       inkscape:connector-curvature="0"
       id="path16"
       d="m 249.79135,273.1344 v -50.12266 h 11.18184 v 41.84098 h 19.80019 v 8.28168 z"
       style="stroke-width:1.72989523" />
    <path
       inkscape:connector-curvature="0"
       id="path18"
       d="m 313.69485,223.01174 v 8.28497 h -19.80383 v 11.78844 h 18.63762 v 8.28826 h -18.63762 v 13.47767 h 20.57706 v 8.28168 h -31.75889 v -50.12102 z"
       style="stroke-width:1.72989523" />
    <path
       inkscape:connector-curvature="0"
       id="path20"
       d="m 350.97917,223.01174 v 8.28497 h -12.11335 v 41.83769 h -11.18184 v -41.83769 h -12.11336 v -8.28497 z"
       style="stroke-width:1.72989523" />
    <path
       inkscape:connector-curvature="0"
       id="path22"
       d="m 258.77537,201.78977 c 0.95153,0.87012 1.42457,1.91293 1.42457,3.13997 0,1.24184 -0.47304,2.29453 -1.42457,3.16793 -0.9588,0.8734 -2.11774,1.30763 -3.48227,1.30763 -1.36089,0 -2.52346,-0.43423 -3.47135,-1.30763 -0.95153,-0.8734 -1.42821,-1.92609 -1.42821,-3.16793 0,-1.22704 0.48031,-2.26985 1.43548,-3.13997 0.95517,-0.86846 2.11411,-1.30269 3.46408,-1.30269 1.36089,0 2.51983,0.43423 3.48227,1.30269 z m 0.56583,-0.49509 c -1.11892,-1.00498 -2.46343,-1.50665 -4.0481,-1.50665 -1.56648,0 -2.91099,0.50167 -4.01898,1.50665 -1.11528,1.0017 -1.67018,2.21887 -1.67018,3.63506 0,1.43593 0.55126,2.65968 1.65562,3.66631 1.11164,1.01156 2.45615,1.51981 4.03354,1.51981 1.58467,0 2.92737,-0.50825 4.0481,-1.51981 1.11527,-1.01157 1.67018,-2.23038 1.67018,-3.66631 0,-1.41619 -0.55491,-2.63172 -1.67018,-3.63506 z m -3.19845,3.40314 c -0.23106,0.0839 -0.5822,0.12336 -1.0516,0.12336 h -0.98792 v -2.05438 h 0.93516 c 0.61131,0 1.05887,0.0757 1.33905,0.21712 0.27291,0.13652 0.40936,0.41449 0.40936,0.8257 -0.002,0.43094 -0.21468,0.73359 -0.64405,0.8882 z m -3.14205,3.05608 h 1.10071 v -2.24025 h 0.8642 c 0.59312,0 0.99884,0.0674 1.23354,0.1908 0.39116,0.20725 0.58583,0.63984 0.58583,1.29777 v 0.45068 l 0.0327,0.18422 c 0.004,0.0181 0.007,0.0395 0.0146,0.0526 0,0.023 0.007,0.0428 0.0145,0.0625 h 1.02976 l -0.0364,-0.0707 c -0.0291,-0.0444 -0.0491,-0.14639 -0.06,-0.29772 -0.004,-0.14967 -0.0146,-0.28619 -0.0146,-0.41943 v -0.41449 c 0,-0.28291 -0.11098,-0.58062 -0.33476,-0.87998 -0.2347,-0.29936 -0.59312,-0.48029 -1.08798,-0.55595 0.39116,-0.0576 0.69318,-0.14639 0.90968,-0.27469 0.413,-0.23849 0.61495,-0.60858 0.61495,-1.11683 0,-0.71221 -0.32385,-1.18921 -0.96973,-1.43099 -0.36933,-0.13652 -0.93515,-0.20396 -1.71202,-0.20396 h -2.18506 z"
       style="stroke-width:1.72989523" />
  </g>
</svg>
