<?xml version="1.0" encoding="UTF-8" standalone="no"?>
<!-- Created with Inkscape (http://www.inkscape.org/) -->

<svg
   xmlns:dc="http://purl.org/dc/elements/1.1/"
   xmlns:cc="http://creativecommons.org/ns#"
   xmlns:rdf="http://www.w3.org/1999/02/22-rdf-syntax-ns#"
   xmlns:svg="http://www.w3.org/2000/svg"
   xmlns="http://www.w3.org/2000/svg"
   xmlns:sodipodi="http://sodipodi.sourceforge.net/DTD/sodipodi-0.dtd"
   xmlns:inkscape="http://www.inkscape.org/namespaces/inkscape"
   width="200mm"
   height="190mm"
   viewBox="0 0 200 190"
   version="1.1"
   id="svg8"
   sodipodi:docname="logoCrossref.svg"
   inkscape:version="0.92.2 (5c3e80d, 2017-08-06)">
  <defs
     id="defs2" />
  <sodipodi:namedview
     id="base"
     pagecolor="#ffffff"
     bordercolor="#666666"
     borderopacity="1.0"
     inkscape:pageopacity="0.0"
     inkscape:pageshadow="2"
     inkscape:zoom="0.35"
     inkscape:cx="-255.70574"
     inkscape:cy="98.30319"
     inkscape:document-units="mm"
     inkscape:current-layer="layer1"
     showgrid="false"
     inkscape:window-width="1920"
     inkscape:window-height="1001"
     inkscape:window-x="-9"
     inkscape:window-y="-9"
     inkscape:window-maximized="1"
     objecttolerance="1"
     showguides="true"
     inkscape:guide-bbox="true">
    <sodipodi:guide
       position="61.232142,84.477679"
       orientation="1,0"
       id="guide1239"
       inkscape:locked="false" />
    <sodipodi:guide
       position="186.15327,46.113096"
       orientation="1,0"
       id="guide1241"
       inkscape:locked="false" />
  </sodipodi:namedview>
  <metadata
     id="metadata5">
    <rdf:RDF>
      <cc:Work
         rdf:about="">
        <dc:format>image/svg+xml</dc:format>
        <dc:type
           rdf:resource="http://purl.org/dc/dcmitype/StillImage" />
        <dc:title></dc:title>
      </cc:Work>
    </rdf:RDF>
  </metadata>
  <g
     inkscape:label="Capa 1"
     inkscape:groupmode="layer"
     id="layer1"
     transform="translate(0,-107)">
    <path
       class="st0"
       d="m 77.616358,206.20937 c -0.351599,-2.28539 -2.549089,-4.04338 -5.098177,-4.04338 -4.57078,0 -6.328772,3.86758 -6.328772,7.99886 0,3.86759 1.757992,7.82307 6.328772,7.82307 3.164385,0 4.922377,-2.10959 5.273976,-5.18608 h 5.010277 c -0.527397,5.80138 -4.48288,9.49316 -10.196354,9.49316 -7.207767,0 -11.426948,-5.36188 -11.426948,-12.04225 0,-6.94407 4.219181,-12.30594 11.426948,-12.30594 5.098177,0 9.405258,2.98859 10.020555,8.35046 h -5.010277 z"
       id="path1183"
       inkscape:connector-curvature="0"
       style="fill:#4f5858;stroke-width:0.87899601;opacity:0.149" />
    <path
       class="st0"
       d="m 84.560426,204.80298 h 4.394982 v 3.16438 h 0.0879 c 0.87899,-2.10959 3.16438,-3.60388 5.36187,-3.60388 0.3516,0 0.7032,0.0879 0.9669,0.1758 v 4.30708 c -0.4395,-0.0879 -1.1427,-0.1758 -1.67009,-0.1758 -3.42809,0 -4.57078,2.46119 -4.57078,5.36188 v 7.55936 h -4.570782 z"
       id="path1185"
       inkscape:connector-curvature="0"
       style="fill:#4f5858;stroke-width:0.87899601;opacity:0.149" />
    <path
       class="st0"
       d="m 104.24994,204.36348 c 5.27398,0 8.70206,3.51598 8.70206,8.87786 0,5.36188 -3.42808,8.87786 -8.70206,8.87786 -5.273982,0 -8.702062,-3.51598 -8.702062,-8.87786 0,-5.36188 3.42808,-8.87786 8.702062,-8.87786 z m 0,14.23974 c 3.16439,0 4.13128,-2.72489 4.13128,-5.36188 0,-2.72489 -0.96689,-5.36188 -4.13128,-5.36188 -3.16439,0 -4.04338,2.72489 -4.04338,5.36188 0,2.72489 0.87899,5.36188 4.04338,5.36188 z"
       id="path1187"
       inkscape:connector-curvature="0"
       style="fill:#4f5858;stroke-width:0.87899601;opacity:0.149" />
    <path
       class="st0"
       d="m 118.31388,216.22993 c 0,2.02169 1.75799,2.81278 3.51598,2.81278 1.31849,0 2.98859,-0.52739 2.98859,-2.10959 0,-1.40639 -1.93379,-1.84589 -5.27398,-2.63698 -2.63699,-0.6153 -5.36188,-1.4943 -5.36188,-4.48288 0,-4.30709 3.69179,-5.36188 7.29567,-5.36188 3.69179,0 7.03197,1.23059 7.38357,5.36188 h -4.39498 c -0.0879,-1.758 -1.49429,-2.28539 -3.16439,-2.28539 -1.05479,0 -2.54909,0.17579 -2.54909,1.58219 0,1.67009 2.63699,1.84589 5.27398,2.54909 2.72489,0.61529 5.36188,1.58219 5.36188,4.74658 0,4.39498 -3.86759,5.88927 -7.64727,5.88927 -3.86758,0 -7.73516,-1.49429 -7.91096,-5.88927 h 4.48288 z"
       id="path1189"
       inkscape:connector-curvature="0"
       style="fill:#4f5858;stroke-width:0.87899601;opacity:0.149" />
    <path
       class="st0"
       d="m 135.1906,216.22993 c 0,2.02169 1.75799,2.81278 3.51598,2.81278 1.3185,0 2.98859,-0.52739 2.98859,-2.10959 0,-1.40639 -1.93379,-1.84589 -5.27398,-2.63698 -2.63698,-0.6153 -5.36187,-1.4943 -5.36187,-4.48288 0,-4.30709 3.69178,-5.36188 7.29567,-5.36188 3.69178,0 7.03196,1.23059 7.38356,5.36188 h -4.39498 c -0.0879,-1.758 -1.49429,-2.28539 -3.16438,-2.28539 -1.0548,0 -2.54909,0.17579 -2.54909,1.58219 0,1.67009 2.63699,1.84589 5.27397,2.54909 2.72489,0.61529 5.36188,1.58219 5.36188,4.74658 0,4.39498 -3.86758,5.88927 -7.64727,5.88927 -3.86758,0 -7.73516,-1.49429 -7.91096,-5.88927 h 4.48288 z"
       id="path1191"
       inkscape:connector-curvature="0"
       style="fill:#4f5858;stroke-width:0.87899601;opacity:0.149" />
    <path
       class="st0"
       d="m 147.93604,204.80298 h 4.39498 v 3.16438 h 0.0879 c 0.879,-2.10959 3.16439,-3.60388 5.36188,-3.60388 0.3516,0 0.7032,0.0879 0.96689,0.1758 v 4.30708 c -0.43949,-0.0879 -1.14269,-0.1758 -1.67009,-0.1758 -3.42808,0 -4.57078,2.46119 -4.57078,5.36188 v 7.55936 h -4.65868 v -16.78882 z"
       id="path1193"
       inkscape:connector-curvature="0"
       style="fill:#4f5858;stroke-width:0.87899601;opacity:0.149" />
    <path
       class="st0"
       d="m 163.84587,214.38403 c 0.0879,2.90069 1.58219,4.30709 4.13128,4.30709 1.84589,0 3.34019,-1.1427 3.60389,-2.19749 h 4.04338 c -1.3185,3.95548 -4.04338,5.62557 -7.91097,5.62557 -5.27397,0 -8.61416,-3.60388 -8.61416,-8.87786 0,-5.01028 3.51599,-8.87786 8.61416,-8.87786 5.71348,0 8.52627,4.83448 8.17467,10.02055 z m 7.47147,-2.90068 c -0.4395,-2.37329 -1.4064,-3.60389 -3.69179,-3.60389 -2.90068,0 -3.77968,2.28539 -3.86758,3.60389 z"
       id="path1195"
       inkscape:connector-curvature="0"
       style="fill:#4f5858;stroke-width:0.87899601;opacity:0.149" />
    <path
       class="st0"
       d="m 178.52511,207.96736 h -2.72489 v -3.07648 h 2.72489 v -1.3185 c 0,-2.98858 1.84589,-5.09817 5.62557,-5.09817 0.7911,0 1.67009,0.0879 2.46119,0.0879 v 3.42808 c -0.5274,-0.0879 -1.1427,-0.0879 -1.67009,-0.0879 -1.2306,0 -1.758,0.5274 -1.758,1.93379 v 0.9669 h 3.16439 v 3.07648 h -3.16439 v 13.71234 h -4.65867 z"
       id="path1197"
       inkscape:connector-curvature="0"
       style="fill:#4f5858;stroke-width:0.87899601;opacity:0.149" />
    <path
       style="fill:#4f5858;stroke-width:0.87899601"
       inkscape:connector-curvature="0"
       id="path4"
       d="m 77.616358,204.88645 c -0.351599,-2.28539 -2.549089,-4.04338 -5.098177,-4.04338 -4.57078,0 -6.328772,3.86758 -6.328772,7.99886 0,3.86759 1.757992,7.82307 6.328772,7.82307 3.164385,0 4.922377,-2.10959 5.273976,-5.18608 h 5.010277 c -0.527397,5.80138 -4.48288,9.49316 -10.196354,9.49316 -7.207767,0 -11.426948,-5.36188 -11.426948,-12.04225 0,-6.94407 4.219181,-12.30594 11.426948,-12.30594 5.098177,0 9.405258,2.98859 10.020555,8.35046 h -5.010277 z"
       class="st0" />
    <path
       style="fill:#4f5858;stroke-width:0.87899601"
       inkscape:connector-curvature="0"
       id="path6"
       d="m 84.560426,203.48006 h 4.394982 v 3.16438 h 0.0879 c 0.87899,-2.10959 3.16438,-3.60388 5.36187,-3.60388 0.3516,0 0.7032,0.0879 0.9669,0.1758 v 4.30708 c -0.4395,-0.0879 -1.1427,-0.1758 -1.67009,-0.1758 -3.42809,0 -4.57078,2.46119 -4.57078,5.36188 v 7.55936 h -4.570782 z"
       class="st0" />
    <path
       style="fill:#4f5858;stroke-width:0.87899601"
       inkscape:connector-curvature="0"
       id="path8"
       d="m 104.24994,203.04056 c 5.27398,0 8.70206,3.51598 8.70206,8.87786 0,5.36188 -3.42808,8.87786 -8.70206,8.87786 -5.273982,0 -8.702062,-3.51598 -8.702062,-8.87786 0,-5.36188 3.42808,-8.87786 8.702062,-8.87786 z m 0,14.23974 c 3.16439,0 4.13128,-2.72489 4.13128,-5.36188 0,-2.72489 -0.96689,-5.36188 -4.13128,-5.36188 -3.16439,0 -4.04338,2.72489 -4.04338,5.36188 0,2.72489 0.87899,5.36188 4.04338,5.36188 z"
       class="st0" />
    <path
       style="fill:#4f5858;stroke-width:0.87899601"
       inkscape:connector-curvature="0"
       id="path10"
       d="m 118.31388,214.90701 c 0,2.02169 1.75799,2.81278 3.51598,2.81278 1.31849,0 2.98859,-0.52739 2.98859,-2.10959 0,-1.40639 -1.93379,-1.84589 -5.27398,-2.63698 -2.63699,-0.6153 -5.36188,-1.4943 -5.36188,-4.48288 0,-4.30709 3.69179,-5.36188 7.29567,-5.36188 3.69179,0 7.03197,1.23059 7.38357,5.36188 h -4.39498 c -0.0879,-1.758 -1.49429,-2.28539 -3.16439,-2.28539 -1.05479,0 -2.54909,0.17579 -2.54909,1.58219 0,1.67009 2.63699,1.84589 5.27398,2.54909 2.72489,0.61529 5.36188,1.58219 5.36188,4.74658 0,4.39498 -3.86759,5.88927 -7.64727,5.88927 -3.86758,0 -7.73516,-1.49429 -7.91096,-5.88927 h 4.48288 z"
       class="st0" />
    <path
       style="fill:#4f5858;stroke-width:0.87899601"
       inkscape:connector-curvature="0"
       id="path12"
       d="m 135.1906,214.90701 c 0,2.02169 1.75799,2.81278 3.51598,2.81278 1.3185,0 2.98859,-0.52739 2.98859,-2.10959 0,-1.40639 -1.93379,-1.84589 -5.27398,-2.63698 -2.63698,-0.6153 -5.36187,-1.4943 -5.36187,-4.48288 0,-4.30709 3.69178,-5.36188 7.29567,-5.36188 3.69178,0 7.03196,1.23059 7.38356,5.36188 h -4.39498 c -0.0879,-1.758 -1.49429,-2.28539 -3.16438,-2.28539 -1.0548,0 -2.54909,0.17579 -2.54909,1.58219 0,1.67009 2.63699,1.84589 5.27397,2.54909 2.72489,0.61529 5.36188,1.58219 5.36188,4.74658 0,4.39498 -3.86758,5.88927 -7.64727,5.88927 -3.86758,0 -7.73516,-1.49429 -7.91096,-5.88927 h 4.48288 z"
       class="st0" />
    <path
       style="fill:#4f5858;stroke-width:0.87899601"
       inkscape:connector-curvature="0"
       id="path14"
       d="m 147.93604,203.48006 h 4.39498 v 3.16438 h 0.0879 c 0.879,-2.10959 3.16439,-3.60388 5.36188,-3.60388 0.3516,0 0.7032,0.0879 0.96689,0.1758 v 4.30708 c -0.43949,-0.0879 -1.14269,-0.1758 -1.67009,-0.1758 -3.42808,0 -4.57078,2.46119 -4.57078,5.36188 v 7.55936 h -4.65868 v -16.78882 z"
       class="st0" />
    <path
       style="fill:#4f5858;stroke-width:0.87899601"
       inkscape:connector-curvature="0"
       id="path16"
       d="m 163.84587,213.06111 c 0.0879,2.90069 1.58219,4.30709 4.13128,4.30709 1.84589,0 3.34019,-1.1427 3.60389,-2.19749 h 4.04338 c -1.3185,3.95548 -4.04338,5.62557 -7.91097,5.62557 -5.27397,0 -8.61416,-3.60388 -8.61416,-8.87786 0,-5.01028 3.51599,-8.87786 8.61416,-8.87786 5.71348,0 8.52627,4.83448 8.17467,10.02055 z m 7.47147,-2.90068 c -0.4395,-2.37329 -1.4064,-3.60389 -3.69179,-3.60389 -2.90068,0 -3.77968,2.28539 -3.86758,3.60389 z"
       class="st0" />
    <path
       style="fill:#4f5858;stroke-width:0.87899601"
       inkscape:connector-curvature="0"
       id="path18"
       d="m 178.52511,206.64444 h -2.72489 v -3.07648 h 2.72489 v -1.3185 c 0,-2.98858 1.84589,-5.09817 5.62557,-5.09817 0.7911,0 1.67009,0.0879 2.46119,0.0879 v 3.42808 c -0.5274,-0.0879 -1.1427,-0.0879 -1.67009,-0.0879 -1.2306,0 -1.758,0.5274 -1.758,1.93379 v 0.9669 h 3.16439 v 3.07648 h -3.16439 v 13.71234 h -4.65867 z"
       class="st0" />
    <polygon
       style="fill:#3eb1c8"
       id="polygon28"
       points="0,67.9 0,47.4 16.8,41.9 46.6,52.1 "
       class="st1"
       transform="matrix(0.87899604,0,0,0.87899604,10.724759,171.9241)" />
    <polygon
       style="fill:#d8d2c4"
       id="polygon30"
       points="29.8,26.1 0,36.4 16.8,41.9 46.6,31.7 "
       class="st2"
       transform="matrix(0.87899604,0,0,0.87899604,10.724759,171.9241)" />
    <polygon
       style="fill:#4f5858"
       id="polygon32"
       points="46.6,52.1 16.8,41.9 46.6,31.7 "
       class="st0"
       transform="matrix(0.87899604,0,0,0.87899604,10.724759,171.9241)" />
    <polygon
       style="fill:#ffc72c"
       id="polygon34"
       points="46.6,0.2 46.6,20.6 29.8,26.1 0,15.9 "
       class="st3"
       transform="matrix(0.87899604,0,0,0.87899604,10.724759,171.9241)" />
    <polygon
       style="fill:#ef3340"
       id="polygon36"
       points="0,15.9 29.8,26.1 0,36.4 "
       class="st4"
       transform="matrix(0.87899604,0,0,0.87899604,10.724759,171.9241)" />
    <polygon
       transform="matrix(0.87899604,0,0,0.87899604,10.724759,171.9241)"
       class="st1"
       points="0,67.9 0,47.4 16.8,41.9 46.6,52.1 "
       id="polygon1199"
       style="fill:#3eb1c8" />
    <polygon
       transform="matrix(0.87899604,0,0,0.87899604,10.724759,171.9241)"
       class="st2"
       points="29.8,26.1 0,36.4 16.8,41.9 46.6,31.7 "
       id="polygon1201"
       style="fill:#d8d2c4" />
    <polygon
       transform="matrix(0.87899604,0,0,0.87899604,10.724759,171.9241)"
       class="st0"
       points="46.6,52.1 16.8,41.9 46.6,31.7 "
       id="polygon1203"
       style="fill:#4f5858" />
    <polygon
       transform="matrix(0.87899604,0,0,0.87899604,10.724759,171.9241)"
       class="st3"
       points="46.6,0.2 46.6,20.6 29.8,26.1 0,15.9 "
       id="polygon1205"
       style="fill:#ffc72c" />
    <polygon
       transform="matrix(0.87899604,0,0,0.87899604,10.724759,171.9241)"
       class="st4"
       points="0,15.9 29.8,26.1 0,36.4 "
       id="polygon1207"
       style="fill:#ef3340" />
    <polygon
       style="fill:#3eb1c8;opacity:0.227"
       id="polygon1213"
       points="16.8,41.9 46.6,52.1 0,67.9 0,47.4 "
       class="st1"
       transform="matrix(0.87899604,0,0,-0.87899604,10.583333,291.12599)" />
    <polygon
       style="fill:#d8d2c4;opacity:0.227"
       id="polygon1215"
       points="16.8,41.9 46.6,31.7 29.8,26.1 0,36.4 "
       class="st2"
       transform="matrix(0.87899604,0,0,-0.87899604,10.583333,291.12599)" />
    <polygon
       style="fill:#4f5858;opacity:0.227"
       id="polygon1217"
       points="46.6,31.7 46.6,52.1 16.8,41.9 "
       class="st0"
       transform="matrix(0.87899604,0,0,-0.87899604,10.583333,291.12599)" />
    <polygon
       style="fill:#ffc72c;opacity:0.227"
       id="polygon1219"
       points="29.8,26.1 0,15.9 46.6,0.2 46.6,20.6 "
       class="st3"
       transform="matrix(0.87899604,0,0,-0.87899604,10.583333,291.12599)" />
    <polygon
       style="fill:#ef3340;opacity:0.227"
       id="polygon1221"
       points="0,36.4 0,15.9 29.8,26.1 "
       class="st4"
       transform="matrix(0.87899604,0,0,-0.87899604,10.583333,291.12599)" />
    <path
       class="st0"
       d="m 77.157758,243.23964 c -0.351599,2.28539 -2.549089,4.04338 -5.098177,4.04338 -4.57078,0 -6.328772,-3.86758 -6.328772,-7.99886 0,-3.86759 1.757992,-7.82307 6.328772,-7.82307 3.164385,0 4.922377,2.10959 5.273976,5.18608 h 5.010277 c -0.527397,-5.80138 -4.48288,-9.49316 -10.196354,-9.49316 -7.207767,0 -11.426948,5.36188 -11.426948,12.04225 0,6.94407 4.219181,12.30594 11.426948,12.30594 5.098177,0 9.405258,-2.98859 10.020555,-8.35046 h -5.010277 z"
       id="path1243"
       inkscape:connector-curvature="0"
       style="fill:#4f5858;stroke-width:0.87899601;opacity:0.098" />
    <path
       class="st0"
       d="m 84.101826,244.64603 h 4.394982 v -3.16438 h 0.0879 c 0.87899,2.10959 3.16438,3.60388 5.36187,3.60388 0.3516,0 0.7032,-0.0879 0.9669,-0.1758 v -4.30708 c -0.4395,0.0879 -1.1427,0.1758 -1.67009,0.1758 -3.42809,0 -4.57078,-2.46119 -4.57078,-5.36188 v -7.55936 h -4.570782 z"
       id="path1245"
       inkscape:connector-curvature="0"
       style="fill:#4f5858;stroke-width:0.87899601;opacity:0.098" />
    <path
       class="st0"
       d="m 103.79134,245.08553 c 5.27398,0 8.70206,-3.51598 8.70206,-8.87786 0,-5.36188 -3.42808,-8.87786 -8.70206,-8.87786 -5.273982,0 -8.702062,3.51598 -8.702062,8.87786 0,5.36188 3.42808,8.87786 8.702062,8.87786 z m 0,-14.23974 c 3.16439,0 4.13128,2.72489 4.13128,5.36188 0,2.72489 -0.96689,5.36188 -4.13128,5.36188 -3.16439,0 -4.04338,-2.72489 -4.04338,-5.36188 0,-2.72489 0.87899,-5.36188 4.04338,-5.36188 z"
       id="path1247"
       inkscape:connector-curvature="0"
       style="fill:#4f5858;stroke-width:0.87899601;opacity:0.098" />
    <path
       class="st0"
       d="m 117.85528,233.21908 c 0,-2.02169 1.75799,-2.81278 3.51598,-2.81278 1.31849,0 2.98859,0.52739 2.98859,2.10959 0,1.40639 -1.93379,1.84589 -5.27398,2.63698 -2.63699,0.6153 -5.36188,1.4943 -5.36188,4.48288 0,4.30709 3.69179,5.36188 7.29567,5.36188 3.69179,0 7.03197,-1.23059 7.38357,-5.36188 h -4.39498 c -0.0879,1.758 -1.49429,2.28539 -3.16439,2.28539 -1.05479,0 -2.54909,-0.17579 -2.54909,-1.58219 0,-1.67009 2.63699,-1.84589 5.27398,-2.54909 2.72489,-0.61529 5.36188,-1.58219 5.36188,-4.74658 0,-4.39498 -3.86759,-5.88927 -7.64727,-5.88927 -3.86758,0 -7.73516,1.49429 -7.91096,5.88927 h 4.48288 z"
       id="path1249"
       inkscape:connector-curvature="0"
       style="fill:#4f5858;stroke-width:0.87899601;opacity:0.098" />
    <path
       class="st0"
       d="m 134.732,233.21908 c 0,-2.02169 1.75799,-2.81278 3.51598,-2.81278 1.3185,0 2.98859,0.52739 2.98859,2.10959 0,1.40639 -1.93379,1.84589 -5.27398,2.63698 -2.63698,0.6153 -5.36187,1.4943 -5.36187,4.48288 0,4.30709 3.69178,5.36188 7.29567,5.36188 3.69178,0 7.03196,-1.23059 7.38356,-5.36188 h -4.39498 c -0.0879,1.758 -1.49429,2.28539 -3.16438,2.28539 -1.0548,0 -2.54909,-0.17579 -2.54909,-1.58219 0,-1.67009 2.63699,-1.84589 5.27397,-2.54909 2.72489,-0.61529 5.36188,-1.58219 5.36188,-4.74658 0,-4.39498 -3.86758,-5.88927 -7.64727,-5.88927 -3.86758,0 -7.73516,1.49429 -7.91096,5.88927 h 4.48288 z"
       id="path1251"
       inkscape:connector-curvature="0"
       style="fill:#4f5858;stroke-width:0.87899601;opacity:0.098" />
    <path
       class="st0"
       d="m 147.47744,244.64603 h 4.39498 v -3.16438 h 0.0879 c 0.879,2.10959 3.16439,3.60388 5.36188,3.60388 0.3516,0 0.7032,-0.0879 0.96689,-0.1758 v -4.30708 c -0.43949,0.0879 -1.14269,0.1758 -1.67009,0.1758 -3.42808,0 -4.57078,-2.46119 -4.57078,-5.36188 v -7.55936 h -4.65868 v 16.78882 z"
       id="path1253"
       inkscape:connector-curvature="0"
       style="fill:#4f5858;stroke-width:0.87899601;opacity:0.098" />
    <path
       class="st0"
       d="m 163.38727,235.06498 c 0.0879,-2.90069 1.58219,-4.30709 4.13128,-4.30709 1.84589,0 3.34019,1.1427 3.60389,2.19749 h 4.04338 c -1.3185,-3.95548 -4.04338,-5.62557 -7.91097,-5.62557 -5.27397,0 -8.61416,3.60388 -8.61416,8.87786 0,5.01028 3.51599,8.87786 8.61416,8.87786 5.71348,0 8.52627,-4.83448 8.17467,-10.02055 z m 7.47147,2.90068 c -0.4395,2.37329 -1.4064,3.60389 -3.69179,3.60389 -2.90068,0 -3.77968,-2.28539 -3.86758,-3.60389 z"
       id="path1255"
       inkscape:connector-curvature="0"
       style="fill:#4f5858;stroke-width:0.87899601;opacity:0.098" />
    <path
       class="st0"
       d="m 178.06651,241.48165 h -2.72489 v 3.07648 h 2.72489 v 1.3185 c 0,2.98858 1.84589,5.09817 5.62557,5.09817 0.7911,0 1.67009,-0.0879 2.46119,-0.0879 v -3.42808 c -0.5274,0.0879 -1.1427,0.0879 -1.67009,0.0879 -1.2306,0 -1.758,-0.5274 -1.758,-1.93379 v -0.9669 h 3.16439 v -3.07648 h -3.16439 v -13.71234 h -4.65867 z"
       id="path1257"
       inkscape:connector-curvature="0"
       style="fill:#4f5858;stroke-width:0.87899601;opacity:0.098" />
  </g>
  <style
     type="text/css"
     id="style2">
	.st0{fill:#4F5858;}
	.st1{fill:#3EB1C8;}
	.st2{fill:#D8D2C4;}
	.st3{fill:#FFC72C;}
	.st4{fill:#EF3340;}
</style>
  <style
     type="text/css"
     id="style2-4">
	.st0{fill:#4F5859;}
	.st1{fill:#3DB0C7;}
	.st2{fill:#D6D0C3;}
	.st3{fill:#FCC62E;}
	.st4{fill:#E63642;}
</style>
</svg>
