<?xml version="1.0" encoding="UTF-8" standalone="no"?>
<!-- Created with Inkscape (http://www.inkscape.org/) -->

<svg
   xmlns:dc="http://purl.org/dc/elements/1.1/"
   xmlns:cc="http://creativecommons.org/ns#"
   xmlns:rdf="http://www.w3.org/1999/02/22-rdf-syntax-ns#"
   xmlns:svg="http://www.w3.org/2000/svg"
   xmlns="http://www.w3.org/2000/svg"
   xmlns:sodipodi="http://sodipodi.sourceforge.net/DTD/sodipodi-0.dtd"
   xmlns:inkscape="http://www.inkscape.org/namespaces/inkscape"
   width="1000"
   height="1122.5197"
   viewBox="0 0 264.58333 297"
   version="1.1"
   id="svg8"
   inkscape:version="0.92.1 r15371"
   sodipodi:docname="Logo Playstation.svg">
  <defs
     id="defs2" />
  <sodipodi:namedview
     id="base"
     pagecolor="#ffffff"
     bordercolor="#666666"
     borderopacity="1.0"
     inkscape:pageopacity="0.0"
     inkscape:pageshadow="2"
     inkscape:zoom="0.49497475"
     inkscape:cx="409.72162"
     inkscape:cy="665.19922"
     inkscape:document-units="mm"
     inkscape:current-layer="layer1"
     showgrid="false"
     units="px"
     inkscape:window-width="1366"
     inkscape:window-height="715"
     inkscape:window-x="-4"
     inkscape:window-y="-4"
     inkscape:window-maximized="1"
     inkscape:measure-start="1119.25,258.599"
     inkscape:measure-end="1099.05,398" />
  <metadata
     id="metadata5">
    <rdf:RDF>
      <cc:Work
         rdf:about="">
        <dc:format>image/svg+xml</dc:format>
        <dc:type
           rdf:resource="http://purl.org/dc/dcmitype/StillImage" />
        <dc:title></dc:title>
      </cc:Work>
    </rdf:RDF>
  </metadata>
  <g
     inkscape:label="Capa 1"
     inkscape:groupmode="layer"
     id="layer1"
     transform="translate(0,8.392334e-6)">
    <path
       style="opacity:1;fill:#0044aa;fill-opacity:1;fill-rule:nonzero;stroke:none;stroke-width:0.62457472;stroke-miterlimit:4;stroke-dasharray:none;stroke-opacity:1"
       d="m 117.90643,103.91248 -24.827316,7.88742 20.498576,7.78065 4.03988,-1.27547 z"
       id="path4539"
       inkscape:connector-curvature="0" />
    <path
       style="opacity:1;fill:#ffcc00;fill-opacity:1;fill-rule:nonzero;stroke:none;stroke-width:0.75209481;stroke-miterlimit:4;stroke-dasharray:none;stroke-opacity:1"
       d="m 35.752394,133.3763 c -25.7770102,16.28073 -0.0128,47.46087 45.1637,37.54556 10.19709,-2.51282 20.295546,-5.51135 32.134166,-9.35992 l -26.947906,-9.8261 -15.60373,4.937 c -13.14618,4.18241 -27.71802,-4.84355 -21.12292,-10.6866 l 11.38376,-3.49126 z"
       id="rect4496"
       inkscape:connector-curvature="0"
       sodipodi:nodetypes="cccccccc" />
    <path
       style="opacity:1;fill:#0044aa;fill-opacity:1;fill-rule:nonzero;stroke:none;stroke-width:0.77104819;stroke-miterlimit:4;stroke-dasharray:none;stroke-opacity:1"
       d="m 192.69345,116.32358 c -5.49085,-0.003 -11.41938,0.59193 -17.70675,1.91277 -10.50131,1.96653 -21.62008,5.21131 -33.11027,9.22786 l 28.03193,9.90783 15.99476,-4.8439 c 13.77575,-4.19496 27.50874,2.98599 20.59781,8.84657 l -10.46165,5.2332 28.03193,9.90782 c 23.42404,-14.16083 4.47428,-40.18091 -31.37776,-40.19215 z"
       id="path4560"
       inkscape:connector-curvature="0"
       sodipodi:nodetypes="ccccccccc" />
    <path
       style="opacity:1;fill:#ffcc00;fill-opacity:1;fill-rule:nonzero;stroke:none;stroke-width:0.71155673;stroke-miterlimit:4;stroke-dasharray:none;stroke-opacity:1"
       d="m 142.01811,170.47133 -1.55858,0.50814 -0.70253,19.56704 27.45611,-9.84089 z"
       id="rect4496-1"
       inkscape:connector-curvature="0" />
    <path
       style="opacity:1;fill:#00d4aa;fill-opacity:1;fill-rule:nonzero;stroke:none;stroke-width:0.73201483;stroke-miterlimit:4;stroke-dasharray:none;stroke-opacity:1"
       d="m 86.102354,151.73584 55.774076,-24.27163 28.03193,9.90783 -56.8581,24.1899 z"
       id="rect4562"
       inkscape:connector-curvature="0"
       sodipodi:nodetypes="ccccc" />
    <path
       style="opacity:1;fill:#00d4aa;fill-opacity:1;fill-rule:nonzero;stroke:none;stroke-width:0.73201489;stroke-miterlimit:4;stroke-dasharray:none;stroke-opacity:1"
       d="m 140.26522,170.87951 55.77406,-24.2716 28.03193,9.90782 -56.8581,24.18989 z"
       id="rect4562-1"
       inkscape:connector-curvature="0"
       sodipodi:nodetypes="ccccc" />
    <path
       style="opacity:1;fill:#00d4aa;fill-opacity:1;fill-rule:nonzero;stroke:none;stroke-width:0.73201489;stroke-miterlimit:4;stroke-dasharray:none;stroke-opacity:1"
       d="m 35.752394,133.3763 57.32672,-21.95486 24.538456,6.88364 -56.858106,24.1899 z"
       id="rect4562-5"
       inkscape:connector-curvature="0"
       sodipodi:nodetypes="ccccc" />
    <path
       style="opacity:1;fill:#d40000;fill-opacity:1;fill-rule:nonzero;stroke:none;stroke-width:1.08319318;stroke-miterlimit:4;stroke-dasharray:none;stroke-opacity:1"
       d="m 111.59737,39.767987 c 11.76965,5.542632 25.00128,5.486432 36.03277,6.402785 28.98044,6.447183 36.95025,49.151142 22.78934,67.744498 -3.90776,5.13092 -9.95346,5.64547 -19.26388,3.06437 0,0 -0.0767,-29.212556 -0.22372,-52.832367 -0.0578,-9.279995 -8.84718,-8.724103 -9.79598,-1.053222 L 139.757,190.54651 112.34994,178.21073 Z"
       id="rect4604"
       inkscape:connector-curvature="0"
       sodipodi:nodetypes="ccssscccc" />
    <text
       xml:space="preserve"
       style="font-style:normal;font-variant:normal;font-weight:normal;font-stretch:normal;font-size:37.20798492px;line-height:1.25;font-family:'Britannic Bold';-inkscape-font-specification:'Britannic Bold, ';letter-spacing:0px;word-spacing:0px;fill:#000000;fill-opacity:1;stroke:none;stroke-width:0.93019956"
       x="53.354359"
       y="216.013"
       id="text4623"
       transform="scale(0.93562594,1.0688032)"><tspan
         sodipodi:role="line"
         id="tspan4621"
         x="53.354359"
         y="216.013"
         style="stroke-width:0.93019956">PlayStation<tspan
   style="font-size:12.69999981px"
   id="tspan4647"> </tspan><tspan
   style="font-size:12.69999981px;baseline-shift:super;stroke-width:0.93019956"
   id="tspan4625">R</tspan><tspan
   style="font-size:12.69999981px"
   id="tspan4627"> </tspan></tspan></text>
    <path
       style="opacity:1;fill:#000000;fill-opacity:1;fill-rule:nonzero;stroke:none;stroke-width:0.6296283;stroke-miterlimit:4;stroke-dasharray:none;stroke-opacity:1"
       d="m 230.24068,203.99494 a 7.1403271,6.6057609 0 0 0 -7.14034,6.60565 7.1403271,6.6057609 0 0 0 7.14034,6.60588 7.1403271,6.6057609 0 0 0 7.14037,-6.60588 7.1403271,6.6057609 0 0 0 -7.14037,-6.60565 z m 0.008,0.52246 a 6.5436301,6.0769714 0 0 1 6.54345,6.07693 6.5436301,6.0769714 0 0 1 -6.54345,6.07691 6.5436301,6.0769714 0 0 1 -6.54368,-6.07691 6.5436301,6.0769714 0 0 1 6.54368,-6.07693 z"
       id="path4629"
       inkscape:connector-curvature="0" />
  </g>
</svg>
