<?xml version="1.0" encoding="UTF-8" standalone="no"?>
<!-- Created with Inkscape (http://www.inkscape.org/) -->

<svg
   xmlns:dc="http://purl.org/dc/elements/1.1/"
   xmlns:cc="http://creativecommons.org/ns#"
   xmlns:rdf="http://www.w3.org/1999/02/22-rdf-syntax-ns#"
   xmlns:svg="http://www.w3.org/2000/svg"
   xmlns="http://www.w3.org/2000/svg"
   xmlns:xlink="http://www.w3.org/1999/xlink"
   xmlns:sodipodi="http://sodipodi.sourceforge.net/DTD/sodipodi-0.dtd"
   xmlns:inkscape="http://www.inkscape.org/namespaces/inkscape"
   width="1000"
   height="1122.5197"
   viewBox="0 0 264.58333 297"
   version="1.1"
   id="svg8"
   inkscape:version="0.92.1 r15371"
   sodipodi:docname="Logo Chevrolet.svg">
  <defs
     id="defs2">
    <linearGradient
       inkscape:collect="always"
       id="linearGradient1180">
      <stop
         style="stop-color:#ffffff;stop-opacity:1"
         offset="0"
         id="stop1176" />
      <stop
         style="stop-color:#808080;stop-opacity:1"
         offset="1"
         id="stop1178" />
    </linearGradient>
    <linearGradient
       inkscape:collect="always"
       id="linearGradient195">
      <stop
         style="stop-color:#1a1a1a;stop-opacity:1"
         offset="0"
         id="stop191" />
      <stop
         style="stop-color:#808080;stop-opacity:0;"
         offset="1"
         id="stop193" />
    </linearGradient>
    <linearGradient
       inkscape:collect="always"
       xlink:href="#linearGradient195"
       id="linearGradient197"
       x1="132.2252"
       y1="82.006187"
       x2="132.12073"
       y2="88.435204"
       gradientUnits="userSpaceOnUse"
       gradientTransform="matrix(1.3755534,0,0,1.3499934,-47.295491,-0.91705981)" />
    <filter
       inkscape:collect="always"
       style="color-interpolation-filters:sRGB"
       id="filter1172"
       x="-0.03677707"
       width="1.0735541"
       y="-0.056009263"
       height="1.1120185">
      <feGaussianBlur
         inkscape:collect="always"
         stdDeviation="2.1557777"
         id="feGaussianBlur1174" />
    </filter>
    <radialGradient
       inkscape:collect="always"
       xlink:href="#linearGradient1180"
       id="radialGradient1184"
       cx="213.85788"
       cy="55.765717"
       fx="213.85788"
       fy="55.765717"
       r="70.340925"
       gradientTransform="matrix(0.31970445,0.57525684,-1.1937778,0.63902637,131.82817,-48.913635)"
       gradientUnits="userSpaceOnUse" />
  </defs>
  <sodipodi:namedview
     id="base"
     pagecolor="#ffffff"
     bordercolor="#666666"
     borderopacity="1.0"
     inkscape:pageopacity="0.0"
     inkscape:pageshadow="2"
     inkscape:zoom="0.34981388"
     inkscape:cx="411.99527"
     inkscape:cy="719.17752"
     inkscape:document-units="mm"
     inkscape:current-layer="layer1"
     showgrid="false"
     units="px"
     inkscape:window-width="1366"
     inkscape:window-height="715"
     inkscape:window-x="-4"
     inkscape:window-y="-4"
     inkscape:window-maximized="1"
     inkscape:snap-global="false" />
  <metadata
     id="metadata5">
    <rdf:RDF>
      <cc:Work
         rdf:about="">
        <dc:format>image/svg+xml</dc:format>
        <dc:type
           rdf:resource="http://purl.org/dc/dcmitype/StillImage" />
        <dc:title />
      </cc:Work>
    </rdf:RDF>
  </metadata>
  <g
     inkscape:label="Capa 1"
     inkscape:groupmode="layer"
     id="layer1"
     transform="translate(0,8.392334e-6)">
    <path
       style="opacity:1;fill:#000000;fill-opacity:1;fill-rule:nonzero;stroke:none;stroke-width:1.10398304;stroke-miterlimit:4;stroke-dasharray:none;stroke-opacity:1;filter:url(#filter1172)"
       d="m 127.3885,79.247909 c -41.881687,0.252039 -66.473447,20.064348 -68.427867,46.234901 0.75637,26.8696 31.68185,46.13774 70.530067,46.13776 38.84822,-2e-5 69.96269,-19.26816 70.15179,-46.13776 -0.47274,-28.665936 -31.39963,-45.891496 -70.24636,-46.232316 -0.67348,-0.0059 -1.34284,-0.0066 -2.00763,-0.0026 z m -6.0327,7.044015 c 1.68046,-6.08e-4 3.21191,0.06381 4.56457,0.170532 -5.75974,3.567559 -10.29384,14.407964 -11.78687,28.177614 -16.280137,-2.17159 -27.196727,-5.45538 -30.590377,-12.77029 2.3491,-4.201845 6.0681,-7.342044 10.42313,-9.659355 6.942537,-2.820993 15.441777,-4.82514 25.591717,-5.892146 0.61271,-0.01583 1.21593,-0.02614 1.79783,-0.02636 z m 13.517,0.628385 c 10.39151,0.197797 19.05513,1.281287 25.77465,3.2737 4.00376,1.449266 7.62275,3.207816 10.82932,5.234824 2.15617,1.727909 3.71342,3.720568 4.63382,5.983617 -0.78749,5.9792 -13.08675,11.53592 -30.07051,13.80742 C 144.6682,101.72434 140.3878,90.950376 134.8728,86.920309 Z m -5.52938,9.029422 c 4.58187,0.63064 8.81234,7.129419 10.09344,19.964159 -3.23567,0.25098 -6.5902,0.38912 -10.03298,0.38912 -3.15072,-0.29129 -6.17091,-0.59035 -9.05578,-0.9095 1.40905,-12.11231 3.63174,-17.892156 8.99532,-19.443779 z m 53.18228,9.526549 c 4.27286,5.74865 6.52773,12.43183 6.52777,19.62826 2.7e-4,22.55716 -26.94075,40.08692 -59.94104,40.08696 -33.000287,-4e-5 -59.563067,-17.5298 -59.562787,-40.08696 5e-5,-7.36074 1.96447,-13.94392 6.06114,-19.53317 3.399,9.48226 18.54246,16.35313 37.998707,18.72909 -1.9e-4,0.0794 -0.003,0.15765 -0.003,0.23719 1e-5,21.72157 6.98747,39.80273 16.07292,39.80274 9.08546,-1e-5 16.82842,-18.08117 16.82843,-39.80274 0,-0.1648 -0.004,-0.32712 -0.005,-0.49144 19.29352,-2.62416 34.56598,-9.48479 36.02262,-18.56993 z m -42.73227,19.2965 c -1.60183,17.82474 -3.68445,23.7458 -10.26087,26.93427 -5.80294,-2.61507 -8.43816,-9.42161 -9.9596,-26.82885 3.05579,0.21993 6.19223,0.33331 9.38496,0.33331 3.66631,0 7.29611,-0.15025 10.83551,-0.43873 z"
       id="path21-8"
       inkscape:connector-curvature="0"
       transform="matrix(1.3755533,0,0,1.3499934,-48.181449,-52.329281)" />
    <path
       style="opacity:1;fill:#333333;fill-opacity:1;fill-rule:nonzero;stroke:none;stroke-width:1.4006784;stroke-miterlimit:4;stroke-dasharray:none;stroke-opacity:1"
       d="m 131.27452,54.654629 c -53.668218,0.316612 -85.180687,25.204853 -87.68513,58.080321 0.969228,33.75361 40.597886,57.95826 90.37895,57.95829 49.78106,-3e-5 89.65191,-24.20468 89.89423,-57.95829 -0.60579,-36.010171 -40.23626,-57.648935 -90.01542,-58.077074 -0.86301,-0.0074 -1.72075,-0.0083 -2.57263,-0.0033 z m -7.73044,8.848698 c 2.15337,-7.62e-4 4.11582,0.08016 5.84914,0.214223 -7.38067,4.481571 -13.19077,18.099303 -15.10398,35.396746 C 93.427472,96.386352 79.438706,92.26124 75.089987,83.07224 c 3.010193,-5.278357 7.775809,-9.223079 13.356455,-12.134086 8.89633,-3.543734 19.787468,-6.061345 32.793848,-7.401719 0.78513,-0.01988 1.55812,-0.03283 2.30379,-0.03312 z m 17.32101,0.78938 c 13.31593,0.248471 24.41771,1.609553 33.02827,4.112423 5.13051,1.82057 9.76798,4.029661 13.87695,6.57599 2.76297,2.170602 4.75847,4.673782 5.9379,7.516623 -1.00911,7.511074 -16.76968,14.491428 -38.53309,17.344901 -1.75797,-16.953098 -7.24298,-30.487364 -14.31003,-35.549937 z m -7.08549,11.342766 c 5.87133,0.792211 11.29236,8.955983 12.93398,25.078997 -4.14625,0.31529 -8.44483,0.48881 -12.85649,0.48882 -4.03742,-0.36593 -7.90757,-0.74161 -11.60431,-1.14253 1.80559,-15.215492 4.6538,-22.476137 11.52682,-24.425287 z m 68.14909,11.967265 c 5.47534,7.221451 8.36478,15.616862 8.36483,24.657032 3.5e-4,28.33632 -34.52253,50.35722 -76.80992,50.35728 -42.287368,-6e-5 -76.325546,-22.02096 -76.325189,-50.35728 5.6e-5,-9.24658 2.517318,-17.516364 7.766883,-24.537586 4.355552,11.911622 23.760758,20.542826 48.692476,23.527496 -2.5e-4,0.0997 -0.004,0.19804 -0.004,0.29795 1e-5,27.28666 8.95393,50.00024 20.59623,50.00025 11.64235,-1e-5 21.56436,-22.71359 21.56437,-50.00025 0,-0.20701 -0.006,-0.41092 -0.007,-0.61733 24.72318,-3.29649 44.29368,-11.914795 46.16025,-23.327562 z M 147.1705,111.84301 c -2.05262,22.39145 -4.72134,29.8295 -13.14853,33.83486 -7.43602,-3.28507 -10.81286,-11.83545 -12.76248,-33.70244 3.91578,0.27628 7.93489,0.41872 12.02612,0.41872 4.69811,0 9.34942,-0.18875 13.88489,-0.55114 z"
       id="path21-6"
       inkscape:connector-curvature="0" />
    <path
       style="opacity:1;fill:url(#radialGradient1184);fill-opacity:1;fill-rule:nonzero;stroke:none;stroke-width:1.50441241;stroke-miterlimit:4;stroke-dasharray:none;stroke-opacity:1"
       d="m 130.99607,47.395795 c -57.61049,0.340252 -91.437753,27.086737 -94.126161,62.416795 1.040427,36.27379 43.580064,62.28564 97.017851,62.28568 53.4378,-4e-5 96.23741,-26.01189 96.49753,-62.28568 -0.65029,-38.698809 -43.19187,-61.9532 -96.62762,-62.413306 -0.9264,-0.0079 -1.84715,-0.0089 -2.7616,-0.0035 z m -8.29829,9.509374 c 2.31155,-8.27e-4 4.41815,0.08615 6.2788,0.230216 -7.92283,4.816182 -14.15972,19.450662 -16.21346,38.039586 -22.394208,-2.931632 -37.410541,-7.364713 -42.078701,-17.239797 3.231312,-5.672467 8.34699,-9.911714 14.337569,-13.040069 9.549834,-3.808322 21.240992,-6.513906 35.202772,-7.954357 0.84282,-0.02137 1.67257,-0.03529 2.47302,-0.03559 z m 18.59335,0.848315 c 14.29407,0.267025 26.21134,1.729729 35.4544,4.419473 5.50739,1.9565 10.4855,4.33053 14.89631,7.066978 2.96593,2.332666 5.108,5.022742 6.37406,8.07784 -1.08323,8.071878 -18.00152,15.573413 -41.36358,18.639938 -1.8871,-18.218883 -7.77502,-32.763665 -15.36119,-38.204229 z m -7.60596,12.18966 c 6.30261,0.851359 12.12184,9.624666 13.88406,26.951473 -4.45083,0.338843 -9.06517,0.525311 -13.8009,0.525311 -4.33397,-0.393242 -8.48841,-0.796968 -12.4567,-1.227812 1.93822,-16.351541 4.99565,-24.154291 12.37354,-26.248972 z m 73.15506,12.860772 c 5.87754,7.760639 8.97924,16.78289 8.97929,26.498014 4e-4,30.45202 -37.05843,54.11708 -82.45209,54.11714 -45.393658,-6e-5 -81.93216,-23.66512 -81.931774,-54.11714 6.9e-5,-9.936945 2.702233,-18.824193 8.337407,-26.369644 4.675505,12.800999 25.506139,22.076634 52.269257,25.284144 -2.7e-4,0.10723 -0.004,0.21283 -0.004,0.3202 1e-5,29.32399 9.61163,53.73342 22.10915,53.73343 12.49754,-1e-5 23.1484,-24.40944 23.14841,-53.73343 0,-0.22247 -0.006,-0.44159 -0.007,-0.66343 26.53924,-3.5426 47.54732,-12.804393 49.551,-25.069284 z m -58.78052,26.050144 c -2.2034,24.06328 -5.06815,32.05667 -14.11437,36.36108 -7.98226,-3.53032 -11.60714,-12.7191 -13.69996,-36.21877 4.2034,0.29691 8.51774,0.44997 12.90951,0.44997 5.0432,0 10.03619,-0.20282 14.90482,-0.59228 z"
       id="path21"
       inkscape:connector-curvature="0" />
    <path
       style="opacity:1;fill:#808080;fill-opacity:1;fill-rule:nonzero;stroke:none;stroke-width:1.80275619;stroke-miterlimit:4;stroke-dasharray:none;stroke-opacity:1"
       d="m 120.61336,109.613 c 0.82558,9.46844 1.67416,17.2829 3.97284,23.67058 4.95497,13.76898 13.88529,17.94653 20.15714,-1.52028 1.74596,-5.41921 2.44611,-12.78852 3.81728,-22.1503 -12.52612,1.05018 -19.19933,0.1858 -27.94726,0 z m 2.86111,3.31791 c 6.794,0.14874 11.97715,0.84064 21.70542,0 -6.66493,46.90101 -19.29732,28.4644 -21.70542,0 z"
       id="rect157"
       inkscape:connector-curvature="0"
       sodipodi:nodetypes="cssccccc" />
    <path
       style="opacity:1;fill:url(#linearGradient197);fill-opacity:1;fill-rule:nonzero;stroke:none;stroke-width:1.80275619;stroke-miterlimit:4;stroke-dasharray:none;stroke-opacity:1"
       d="m 120.54183,109.49401 c 3.10065,35.5599 19.3655,58.59234 27.94726,0 -12.52612,1.05018 -19.19933,0.18581 -27.94726,0 z m 2.86112,3.31791 c 6.794,0.14875 11.97714,0.84065 21.70541,0 -6.66493,46.90101 -19.29732,28.4644 -21.70541,0 z"
       id="rect157-6"
       inkscape:connector-curvature="0" />
    <path
       style="opacity:1;fill:#ffffff;fill-opacity:1;fill-rule:nonzero;stroke:none;stroke-width:1.4825983;stroke-miterlimit:4;stroke-dasharray:none;stroke-opacity:1"
       d="m 130.8831,48.711258 c -57.030877,0.333814 -90.517815,26.57427 -93.17918,61.235912 1.029959,35.58751 43.141605,61.10723 96.04178,61.10725 52.90016,-2e-5 95.26916,-25.51974 95.52667,-61.10725 -0.64375,-37.966657 -42.75733,-60.781089 -95.65545,-61.23249 -0.91707,-0.0078 -1.82856,-0.0088 -2.73382,-0.0034 z m 2.60504,0.960256 a 93.947671,59.678331 0 0 1 93.94762,59.678156 93.947671,59.678331 0 0 1 -93.94762,59.67817 93.947671,59.678331 0 0 1 -93.947595,-59.67817 93.947671,59.678331 0 0 1 93.947595,-59.678156 z"
       id="path21-5"
       inkscape:connector-curvature="0" />
    <text
       xml:space="preserve"
       style="font-style:normal;font-variant:normal;font-weight:normal;font-stretch:normal;font-size:41.14592361px;line-height:1.25;font-family:'Arial Rounded MT Bold';-inkscape-font-specification:'Arial Rounded MT Bold, ';letter-spacing:0px;word-spacing:0px;fill:#ff0000;fill-opacity:1;stroke:none;stroke-width:1.02864814"
       x="49.542286"
       y="228.52702"
       id="text1188"
       transform="scale(1.0482731,0.95394988)"><tspan
         sodipodi:role="line"
         id="tspan1186"
         x="49.542286"
         y="228.52702"
         style="fill:#ff0000;fill-opacity:1;stroke-width:1.02864814">TOYOTA</tspan></text>
  </g>
</svg>
